<svg xmlns="http://www.w3.org/2000/svg" width="1600" height="1000" viewBox="0 0 1600 1000">
<defs><linearGradient id="wall" x1="0" y1="0" x2="1" y2="1"><stop stop-color="#2b203d"/><stop offset=".5" stop-color="#594078"/><stop offset="1" stop-color="#1e5d5d"/></linearGradient><radialGradient id="glow"><stop stop-color="#d9b8ff" stop-opacity=".55"/><stop offset="1" stop-color="#d9b8ff" stop-opacity="0"/></radialGradient></defs>
<rect x="0" y="0" width="1600" height="1000" rx="0" fill="url(#wall)" stroke="none" stroke-width="0" opacity="1"/>
<circle cx="370" cy="280" r="420" fill="url(#glow)" stroke="none" stroke-width="0"/>
<rect x="12" y="10" width="1576" height="64" rx="32" fill="#211c2a" stroke="#958d99" stroke-width="1" opacity="1"/>
<rect x="20" y="18" width="172" height="48" rx="24" fill="#4c4055" stroke="none" stroke-width="0" opacity="1"/>
<text x="52" y="50" font-family="Roboto, sans-serif" font-size="18" font-weight="600" fill="#eee7f2" text-anchor="start">⌘  Space 1</text>
<text x="218" y="49" font-family="Roboto, sans-serif" font-size="18" font-weight="500" fill="#eee7f2" text-anchor="start">Firefox — Material guidance</text>
<text x="1185" y="49" font-family="Roboto, sans-serif" font-size="17" font-weight="500" fill="#eee7f2" text-anchor="start">Tue 14  ·  10:42</text>
<rect x="1370" y="18" width="206" height="48" rx="24" fill="#4c4055" stroke="none" stroke-width="0" opacity="1"/>
<g fill="none" stroke="#eee7f2" stroke-width="5" stroke-linecap="round">
    <path d="M1378 37 Q1400 17 1422 37"/><path d="M1386 46 Q1400 33 1414 46"/><path d="M1395 55 Q1400 50 1405 55"/></g>
<text x="1430" y="49" font-family="Roboto, sans-serif" font-size="17" font-weight="600" fill="#eee7f2" text-anchor="start">▮▮  56%   2</text>
<rect x="1032" y="92" width="536" height="866" rx="36" fill="#211c2a" stroke="#958d99" stroke-width="1" opacity="1"/>
<text x="1060" y="144" font-family="Roboto, sans-serif" font-size="30" font-weight="600" fill="#eee7f2" text-anchor="start">Control center</text>
<text x="1060" y="174" font-family="Roboto, sans-serif" font-size="16" font-weight="400" fill="#cbc3cf" text-anchor="start">Live system controls</text>
<circle cx="1476" cy="140" r="24" fill="#302938" stroke="none" stroke-width="0"/>
<text x="1476" y="148" font-family="Roboto, sans-serif" font-size="22" font-weight="500" fill="#eee7f2" text-anchor="middle">⚙</text>
<circle cx="1528" cy="140" r="24" fill="#302938" stroke="none" stroke-width="0"/>
<text x="1528" y="148" font-family="Roboto, sans-serif" font-size="22" font-weight="500" fill="#eee7f2" text-anchor="middle">⏻</text>
<rect x="1056" y="204" width="238" height="94" rx="18" fill="#4c4055" stroke="none" stroke-width="0" opacity="1"/>
<circle cx="1094" cy="251" r="22" fill="#254f4d" stroke="none" stroke-width="0"/>
<g fill="none" stroke="#a7d9d4" stroke-width="5" stroke-linecap="round">
    <path d="M1072 246 Q1094 226 1116 246"/><path d="M1080 255 Q1094 242 1108 255"/><path d="M1089 264 Q1094 259 1099 264"/></g>
<text x="1130" y="243" font-family="Roboto, sans-serif" font-size="17" font-weight="600" fill="#eee7f2" text-anchor="start">Wi‑Fi</text>
<text x="1130" y="269" font-family="Roboto, sans-serif" font-size="14" font-weight="400" fill="#cbc3cf" text-anchor="start">Connected</text>
<rect x="1306" y="204" width="238" height="94" rx="18" fill="#4c4055" stroke="none" stroke-width="0" opacity="1"/>
<circle cx="1344" cy="251" r="22" fill="#254f4d" stroke="none" stroke-width="0"/>
<g fill="none" stroke="#a7d9d4" stroke-width="4" stroke-linecap="round" stroke-linejoin="round">
    <path d="M1344 229 L1359 243 L1329 269 M1344 275 L1359 260 L1329 234 M1344 229 L1344 275"/></g>
<text x="1380" y="243" font-family="Roboto, sans-serif" font-size="17" font-weight="600" fill="#eee7f2" text-anchor="start">Bluetooth</text>
<text x="1380" y="269" font-family="Roboto, sans-serif" font-size="14" font-weight="400" fill="#cbc3cf" text-anchor="start">Available</text>
<rect x="1056" y="310" width="238" height="94" rx="28" fill="#302938" stroke="none" stroke-width="0" opacity="1"/>
<circle cx="1094" cy="357" r="22" fill="#211c2a" stroke="none" stroke-width="0"/>
<text x="1094" y="365" font-family="Roboto, sans-serif" font-size="22" font-weight="500" fill="#eee7f2" text-anchor="middle">●</text>
<text x="1130" y="349" font-family="Roboto, sans-serif" font-size="17" font-weight="600" fill="#eee7f2" text-anchor="start">Do Not Disturb</text>
<text x="1130" y="375" font-family="Roboto, sans-serif" font-size="14" font-weight="400" fill="#cbc3cf" text-anchor="start">Alerts on</text>
<rect x="1306" y="310" width="238" height="94" rx="18" fill="#4c4055" stroke="none" stroke-width="0" opacity="1"/>
<circle cx="1344" cy="357" r="22" fill="#254f4d" stroke="none" stroke-width="0"/>
<text x="1344" y="365" font-family="Roboto, sans-serif" font-size="22" font-weight="500" fill="#eee7f2" text-anchor="middle">●</text>
<text x="1380" y="349" font-family="Roboto, sans-serif" font-size="17" font-weight="600" fill="#eee7f2" text-anchor="start">Dark theme</text>
<text x="1380" y="375" font-family="Roboto, sans-serif" font-size="14" font-weight="400" fill="#cbc3cf" text-anchor="start">On</text>
<rect x="1056" y="416" width="238" height="94" rx="28" fill="#302938" stroke="none" stroke-width="0" opacity="1"/>
<circle cx="1094" cy="463" r="22" fill="#211c2a" stroke="none" stroke-width="0"/>
<g fill="none" stroke="#cbc3cf" stroke-width="4" stroke-linecap="round"><circle cx="1094" cy="463" r="11" fill="none" stroke="#cbc3cf" stroke-width="4"/><line x1="1094" y1="434" x2="1094" y2="441" transform="rotate(0 1094 463)"/><line x1="1094" y1="434" x2="1094" y2="441" transform="rotate(45 1094 463)"/><line x1="1094" y1="434" x2="1094" y2="441" transform="rotate(90 1094 463)"/><line x1="1094" y1="434" x2="1094" y2="441" transform="rotate(135 1094 463)"/><line x1="1094" y1="434" x2="1094" y2="441" transform="rotate(180 1094 463)"/><line x1="1094" y1="434" x2="1094" y2="441" transform="rotate(225 1094 463)"/><line x1="1094" y1="434" x2="1094" y2="441" transform="rotate(270 1094 463)"/><line x1="1094" y1="434" x2="1094" y2="441" transform="rotate(315 1094 463)"/></g>
<text x="1130" y="455" font-family="Roboto, sans-serif" font-size="17" font-weight="600" fill="#eee7f2" text-anchor="start">Night light</text>
<text x="1130" y="481" font-family="Roboto, sans-serif" font-size="14" font-weight="400" fill="#cbc3cf" text-anchor="start">Unavailable</text>
<rect x="1306" y="416" width="238" height="94" rx="28" fill="#302938" stroke="none" stroke-width="0" opacity="1"/>
<circle cx="1344" cy="463" r="22" fill="#211c2a" stroke="none" stroke-width="0"/>
<text x="1344" y="471" font-family="Roboto, sans-serif" font-size="22" font-weight="500" fill="#eee7f2" text-anchor="middle">⌨</text>
<text x="1380" y="455" font-family="Roboto, sans-serif" font-size="17" font-weight="600" fill="#eee7f2" text-anchor="start">Keyboard</text>
<text x="1380" y="481" font-family="Roboto, sans-serif" font-size="14" font-weight="400" fill="#cbc3cf" text-anchor="start">English (US)</text>
<text x="1056" y="544" font-family="Roboto, sans-serif" font-size="20" font-weight="600" fill="#eee7f2" text-anchor="start">Audio</text>
<rect x="1056" y="562" width="488" height="110" rx="24" fill="#302938" stroke="none" stroke-width="0" opacity="1"/>
<text x="1074" y="591" font-family="Roboto, sans-serif" font-size="16" font-weight="600" fill="#eee7f2" text-anchor="start">Output</text>
<text x="1525" y="591" font-family="Roboto, sans-serif" font-size="15" font-weight="600" fill="#eee7f2" text-anchor="end">56%</text>
<rect x="1072" y="605" width="248" height="50" rx="25" fill="#4c4055" stroke="none" stroke-width="0" opacity="1"/>
<text x="1094" y="636" font-family="Roboto, sans-serif" font-size="18" font-weight="600" fill="#eee7f2" text-anchor="start">◖</text>
<text x="1119" y="636" font-family="Roboto, sans-serif" font-size="14" font-weight="600" fill="#eee7f2" text-anchor="start">Built‑in speakers</text>
<rect x="1276" y="609" width="40" height="42" rx="21" fill="#5b4d65" stroke="none" stroke-width="0" opacity="1"/>
<text x="1296" y="636" font-family="Roboto, sans-serif" font-size="18" font-weight="600" fill="#eee7f2" text-anchor="middle">⌄</text>
<rect x="1342" y="619" width="178" height="22" rx="11" fill="#4d4454" stroke="none" stroke-width="0" opacity="1"/>
<rect x="1342" y="619" width="92.68" height="22" rx="11" fill="#70558e" stroke="none" stroke-width="0" opacity="1"/>
<rect x="1438.68" y="613" width="6" height="34" rx="3" fill="#d4bbff" stroke="none" stroke-width="0" opacity="1"/>
<circle cx="1356" cy="630" r="7" fill="#d4bbff" stroke="none" stroke-width="0"/>
<rect x="1056" y="682" width="488" height="110" rx="24" fill="#302938" stroke="none" stroke-width="0" opacity="1"/>
<text x="1074" y="711" font-family="Roboto, sans-serif" font-size="16" font-weight="600" fill="#eee7f2" text-anchor="start">Input</text>
<text x="1525" y="711" font-family="Roboto, sans-serif" font-size="15" font-weight="600" fill="#eee7f2" text-anchor="end">72%</text>
<rect x="1072" y="725" width="248" height="50" rx="25" fill="#4c4055" stroke="none" stroke-width="0" opacity="1"/>
<text x="1094" y="756" font-family="Roboto, sans-serif" font-size="18" font-weight="600" fill="#eee7f2" text-anchor="start">●</text>
<text x="1119" y="756" font-family="Roboto, sans-serif" font-size="14" font-weight="600" fill="#eee7f2" text-anchor="start">USB microphone</text>
<rect x="1276" y="729" width="40" height="42" rx="21" fill="#5b4d65" stroke="none" stroke-width="0" opacity="1"/>
<text x="1296" y="756" font-family="Roboto, sans-serif" font-size="18" font-weight="600" fill="#eee7f2" text-anchor="middle">⌄</text>
<rect x="1342" y="739" width="178" height="22" rx="11" fill="#4d4454" stroke="none" stroke-width="0" opacity="1"/>
<rect x="1342" y="739" width="121.16" height="22" rx="11" fill="#7d6c91" stroke="none" stroke-width="0" opacity="1"/>
<rect x="1467.16" y="733" width="6" height="34" rx="3" fill="#d1c0dc" stroke="none" stroke-width="0" opacity="1"/>
<circle cx="1356" cy="750" r="7" fill="#d1c0dc" stroke="none" stroke-width="0"/>
<rect x="1056" y="802" width="488" height="84" rx="24" fill="#302938" stroke="none" stroke-width="0" opacity="1"/>
<text x="1074" y="832" font-family="Roboto, sans-serif" font-size="16" font-weight="600" fill="#eee7f2" text-anchor="start">Brightness</text>
<text x="1525" y="832" font-family="Roboto, sans-serif" font-size="15" font-weight="600" fill="#eee7f2" text-anchor="end">72%</text>
<rect x="1074" y="852" width="452" height="22" rx="11" fill="#4d4454" stroke="none" stroke-width="0" opacity="1"/>
<rect x="1074" y="852" width="318.44" height="22" rx="11" fill="#6c6b49" stroke="none" stroke-width="0" opacity="1"/>
<rect x="1396.44" y="846" width="6" height="34" rx="3" fill="#a7d9d4" stroke="none" stroke-width="0" opacity="1"/>
<g fill="none" stroke="#a7d9d4" stroke-width="4" stroke-linecap="round"><circle cx="1089" cy="863" r="11" fill="none" stroke="#a7d9d4" stroke-width="4"/><line x1="1089" y1="834" x2="1089" y2="841" transform="rotate(0 1089 863)"/><line x1="1089" y1="834" x2="1089" y2="841" transform="rotate(45 1089 863)"/><line x1="1089" y1="834" x2="1089" y2="841" transform="rotate(90 1089 863)"/><line x1="1089" y1="834" x2="1089" y2="841" transform="rotate(135 1089 863)"/><line x1="1089" y1="834" x2="1089" y2="841" transform="rotate(180 1089 863)"/><line x1="1089" y1="834" x2="1089" y2="841" transform="rotate(225 1089 863)"/><line x1="1089" y1="834" x2="1089" y2="841" transform="rotate(270 1089 863)"/><line x1="1089" y1="834" x2="1089" y2="841" transform="rotate(315 1089 863)"/></g>
<text x="1056" y="907" font-family="Roboto, sans-serif" font-size="15" font-weight="600" fill="#eee7f2" text-anchor="start">Power profile</text>
<rect x="1056" y="918" width="488" height="40" rx="20" fill="#302938" stroke="none" stroke-width="0" opacity="1"/>
<rect x="1212" y="922" width="164" height="32" rx="14" fill="#4c4055" stroke="none" stroke-width="0" opacity="1"/>
<text x="1133" y="945" font-family="Roboto, sans-serif" font-size="13" font-weight="500" fill="#cbc3cf" text-anchor="middle">Saver</text>
<text x="1294" y="945" font-family="Roboto, sans-serif" font-size="13" font-weight="600" fill="#eee7f2" text-anchor="middle">Balanced</text>
<text x="1457" y="945" font-family="Roboto, sans-serif" font-size="13" font-weight="500" fill="#cbc3cf" text-anchor="middle">Fast</text>
</svg>